 http://www.torrentday.com - Your Key To The Scene.

 
http://www.torrentday.com :  Clean RAR Scene Releases!


Enjoy =)

...................................NFO:....................................

.      *********** ****    ****      ***      ******** *********** ****    *** **********
           *+*     +*+*+* *+*+*+   *+* *+*   *+*    *+*    *+*     *+*+*   *+* *+*        
           +*+     +*+ +*+*+ +*+  +*+   +*+  +*+           +*+     *+*+*+  +*+ +*+        
           +$+     +$+  +*+  +$+ +$++*++$++* *$*           +$+     +$+ +*+ +$+ +$++*++$  
           +$+     +$+       +$+ +$+     +$+ +$+   +$+$    +$+     +$+  +$+$+$ +$+        
           $+$     $+$       $+$ $+$     $+$ $+$    $+$    $+$     $+$   $+$+$ $+$        
       $$$$$$$$$$$ $$$       $$$ $$$     $$$  $$$$$$$$ $$$$$$$$$$$ $$$    $$$$ $$$$$$$$$$     
                                                



                           Another Fine Release Brought to you from - IMAGiNE                   
                                              http://imaginegroup.me/  
    
********************************************************************************************************************                                
                                 Ninja Assassin PPV XVID - IMAGINE
********************************************************************************************************************

Ripper ...........: IMAGiNE                                        IMDB Rating.......:7.1/10                             
Video Codec.......: XVID                                         Release Date......:12/02/10
Audio Codec.......:MP3                                           Theatre Date......:25/11/09
Audio Bitrate.....:224                                              Runtime.......:1h 38mn
Subtitles.........:NIL                                                 Language..........:ENGLISH
Resolution...... 632 x 352                                      IMDb URL..........:http://www.imdb.com/title/tt1186367/


[color=yellow]DETAILS:[/color]

Video
ID                               : 0
Format                           : MPEG-4 Visual
Format profile                   : Advanced Simple@L5
Format settings, BVOP            : Yes
Format settings, QPel            : No
Format settings, GMC             : No warppoints
Format settings, Matrix          : Default (H.263)
Muxing mode                      : Packed bitstream
Codec ID                         : XVID
Codec ID/Hint                    : XviD
Duration                         : 1h 38mn
Bit rate                         : 1 865 Kbps
Width                            : 632 pixels
Height                           : 352 pixels
Display aspect ratio             : 16/9
Frame rate                       : 23.976 fps
Resolution                       : 24 bits
Colorimetry                      : 4:2:0
Scan type                        : Progressive
Bits/(Pixel*Frame)               : 0.350
Stream size                      : 1.28 GiB (89%)
Writing library                  : XviD 1.2.1 (UTC 2008-12-04)

Audio
ID                               : 1
Format                           : MPEG Audio
Format version                   : Version 1
Format profile                   : Layer 2
Codec ID                         : 50
Codec ID/Hint                    : MP1
Duration                         : 1h 38mn
Bit rate mode                    : Constant
Bit rate                         : 224 Kbps
Channel(s)                       : 2 channels
Sampling rate                    : 48.0 KHz
Resolution                       : 16 bits
Video delay                      : 11ms
Stream size                      : 158 MiB (11%)
Alignment                        : Split accross interleaves
Interleave, duration             : 42 ms (1.00 video frame)
Interleave, preload duration     : 500 ms


[color=yellow]NOTES:[/color]

IMAGiNE bringing you another release.....
Here's another ppv.....quality more or less the same as the other one....also had the same problems as new moon.
Fixed what we could with some TLC.
Enjoy
Thanks again to SN and mr H :)


[color=yellow]SCREENS:[/color]

[IMG]http://imagine.takagari.com/NINJA%20ASSASSIN%20PPV/vlcsnap-179891.png[/IMG]
[IMG]http://imagine.takagari.com/NINJA%20ASSASSIN%20PPV/vlcsnap-180704.png[/IMG]
[IMG]http://imagine.takagari.com/NINJA%20ASSASSIN%20PPV/vlcsnap-180815.png[/IMG]
[IMG]http://imagine.takagari.com/NINJA%20ASSASSIN%20PPV/vlcsnap-180960.png[/IMG]
[IMG]http://imagine.takagari.com/NINJA%20ASSASSIN%20PPV/vlcsnap-181257.png[/IMG]
[IMG]http://imagine.takagari.com/NINJA%20ASSASSIN%20PPV/vlcsnap-182068.png[/IMG]


[color=yellow]GREETS:[/color]

FLAWL3SS,ViSiON,DEViSE,FUSiON,STG,SecretMyth,BirdFlu,ELEKTRI4KA
And to all the other p2p grps past and present 

Special thanks to Python-Lair for the server :)
And special thanks to supreme-speeds.com for the ripbox :)


[COLOR=RED]Looking for these,syncers,cammer,silver supplier.....Have anything to offer????......
Contact us imaginegroup@hushmail.com[/COLOR]